<?xml version="1.0" encoding="UTF-8"?>
<svg id="logo" viewBox="0 0 149 122" version="1.1" xmlns="http://www.w3.org/2000/svg" xmlns:xlink="http://www.w3.org/1999/xlink">
    <g  stroke-width="1" fill="none" fill-rule="evenodd">
        <path d="M5.95864545,104.266874 L3.74983333,104.266874 L3.74983333,109.903307 L5.95864545,109.903307 C7.18586364,109.903307 8.16745758,109.002128 8.16745758,107.873396 L8.16745758,106.295881 C8.16745758,105.168956 7.18586364,104.266874 5.95864545,104.266874 M2.27699091,101.562434 L5.95864545,101.562434 C8.81041515,101.562434 11.1113364,103.674516 11.1113364,106.295881 L11.1113364,107.873396 C11.1113364,110.495665 8.81041515,112.60865 5.95864545,112.60865 L3.74983333,112.60865 L3.74983333,119.147165 C3.74983333,119.908381 3.07707576,120.499837 2.27699091,120.499837 C1.44981515,120.499837 0.805954545,119.908381 0.805954545,119.147165 L0.805954545,102.914202 C0.805954545,102.180978 1.44981515,101.562434 2.27699091,101.562434" id="Fill-1" fill="#163A60"></path>
        <path d="M21.7187818,115.793569 C21.7792848,115.173218 21.5354667,114.552867 21.0740182,114.102278 L16.1669515,109.479897 C15.1239515,108.522733 14.601097,107.170061 14.7257152,105.816487 C14.8467212,104.463815 15.5817879,103.224016 16.7494061,102.407718 C17.9152182,101.590516 19.4485636,101.278987 20.890703,101.533628 C22.3319394,101.81536 23.5898606,102.633464 24.3267333,103.816375 C24.7249697,104.463815 24.4802485,105.281919 23.7740788,105.676524 C23.0688121,106.043136 22.1793273,105.816487 21.7792848,105.169046 C21.4415515,104.661569 20.9214061,104.323852 20.3082485,104.182987 C19.6634848,104.070113 19.0503273,104.210979 18.5292788,104.577591 C18.0073273,104.915307 17.700297,105.451681 17.6686909,106.043136 C17.6072848,106.606599 17.8222061,107.170061 18.2827515,107.592658 L23.1618242,112.213233 C24.2346242,113.228188 24.7854727,114.608852 24.6644667,115.989516 C24.5416545,117.399979 23.7740788,118.66777 22.5784667,119.512964 C21.3512485,120.359061 19.816097,120.668785 18.3125515,120.415046 C16.8099091,120.133315 15.5212848,119.258322 14.7853152,118.075412 C14.3563758,117.427069 14.601097,116.581875 15.3063636,116.216166 C16.0134364,115.849554 16.9020182,116.0753 17.3318606,116.723643 C17.6686909,117.25821 18.2204424,117.624822 18.8977152,117.764785 C19.5704727,117.878561 20.2459394,117.737696 20.7985939,117.343091 C21.3512485,116.976479 21.6564727,116.413919 21.7187818,115.793569" id="Fill-3" fill="#163A60"></path>
        <path d="M29.5642188,119.147075 L29.5642188,102.801239 C29.5642188,102.069821 30.2387824,101.448567 31.0370612,101.448567 C31.86514,101.448567 32.5099036,102.069821 32.5099036,102.801239 L32.5099036,119.147075 C32.5099036,119.908291 31.86514,120.499746 31.0370612,120.499746 C30.2387824,120.499746 29.5642188,119.908291 29.5642188,119.147075" id="Fill-5" fill="#163A60"></path>
        <path d="M38.2236473,115.765215 L38.2236473,106.18364 C38.2236473,104.04176 39.7895018,102.153618 42.0281139,101.617245 C44.3028473,101.055588 46.6642715,101.955864 47.8300836,103.816013 C48.2608291,104.464357 48.0152048,105.281558 47.3081321,105.676163 C46.6028655,106.042775 45.7142836,105.816125 45.2844412,105.168685 C44.7931927,104.379476 43.7790897,103.985775 42.7974958,104.23861 C41.8457018,104.464357 41.1720412,105.281558 41.1720412,106.18364 L41.1720412,115.765215 C41.1720412,116.69529 41.8457018,117.483596 42.7974958,117.738237 C43.7790897,117.963984 44.7931927,117.568476 45.2844412,116.779267 C45.7142836,116.130924 46.6028655,115.906081 47.3081321,116.272693 C48.0152048,116.667297 48.2608291,117.483596 47.8300836,118.131939 C46.6642715,119.992088 44.3028473,120.89417 42.0281139,120.329804 C39.7895018,119.795237 38.2236473,117.906193 38.2236473,115.765215" id="Fill-7" fill="#163A60"></path>
        <path d="M55.1921285,106.183279 L55.1921285,115.764854 C55.1921285,116.891779 56.1746255,117.793861 57.4009406,117.793861 C58.6263527,117.793861 59.6088497,116.891779 59.6088497,115.764854 L59.6088497,106.183279 C59.6088497,105.056354 58.6263527,104.154272 57.4009406,104.154272 C56.1746255,104.154272 55.1921285,105.056354 55.1921285,106.183279 M52.2464436,115.764854 L52.2464436,106.183279 C52.2464436,103.562816 54.5473648,101.448928 57.4009406,101.448928 C60.2536133,101.448928 62.5545345,103.562816 62.5545345,106.183279 L62.5545345,115.764854 C62.5545345,118.385316 60.2536133,120.500107 57.4009406,120.500107 C54.5473648,120.500107 52.2464436,118.385316 52.2464436,115.764854" id="Fill-9" fill="#163A60"></path>
        <path d="M67.5602121,119.147075 L67.5602121,102.801239 C67.5602121,102.180888 68.0225636,101.617425 68.6962242,101.477463 C69.3716909,101.336597 70.0769576,101.646321 70.3541879,102.238679 C70.3541879,102.238679 72.5313939,106.436657 73.9428303,109.198888 C75.3542667,106.436657 77.5025758,102.238679 77.5025758,102.238679 C77.8078,101.646321 78.4823636,101.336597 79.1569273,101.477463 C79.8323939,101.617425 80.3236424,102.180888 80.3236424,102.801239 L80.3236424,119.147075 C80.3236424,119.908291 79.6481758,120.499746 78.8508,120.499746 C78.0227212,120.499746 77.3788606,119.908291 77.3788606,119.147075 L77.3788606,108.861172 C76.3358606,110.861284 75.2612545,112.947179 75.2612545,112.947179 C75.0165333,113.426664 74.4936788,113.735485 73.9428303,113.735485 C73.3585697,113.735485 72.8393273,113.426664 72.5928,112.947179 C72.5928,112.947179 71.519097,110.861284 70.5068,108.861172 L70.5068,119.147075 C70.5068,119.908291 69.8313333,120.499746 69.0339576,120.499746 C68.2058788,120.499746 67.5602121,119.908291 67.5602121,119.147075" id="Fill-11" fill="#163A60"></path>
        <path d="M87.5701897,101.561982 L93.7053776,101.561982 C94.5334564,101.561982 95.17822,102.18143 95.17822,102.914654 C95.17822,103.674967 94.5334564,104.266422 93.7053776,104.266422 L89.0430321,104.266422 L89.0430321,109.339393 L93.09222,109.339393 C93.9202988,109.339393 94.5650624,109.959743 94.5650624,110.692967 C94.5650624,111.453281 93.9202988,112.045639 93.09222,112.045639 L89.0430321,112.045639 L89.0430321,117.682072 L93.7053776,117.682072 C94.5334564,117.682072 95.17822,118.301519 95.17822,119.032937 C95.17822,119.795057 94.5334564,120.387415 93.7053776,120.387415 L87.5701897,120.387415 C86.7719109,120.387415 86.0973473,119.795057 86.0973473,119.032937 L86.0973473,102.914654 C86.0973473,102.18143 86.7719109,101.561982 87.5701897,101.561982" id="Fill-13" fill="#163A60"></path>
        <path d="M108.169485,101.561982 C108.997564,101.561982 109.640521,102.18143 109.640521,102.914654 C109.640521,103.674967 108.997564,104.266422 108.169485,104.266422 L105.651836,104.266422 L105.651836,119.146713 C105.651836,119.90793 105.008879,120.499385 104.1808,120.499385 C103.382521,120.499385 102.707958,119.90793 102.707958,119.146713 L102.707958,104.266422 L100.193018,104.266422 C99.3938364,104.266422 98.7201758,103.674967 98.7201758,102.914654 C98.7201758,102.18143 99.3938364,101.561982 100.193018,101.561982 L108.169485,101.561982 Z" id="Fill-15" fill="#163A60"></path>
        <path d="M116.404941,109.903668 L118.613753,109.903668 C119.840971,109.903668 120.822565,109.001586 120.822565,107.873757 L120.822565,106.29534 C120.822565,105.168414 119.840971,104.267235 118.613753,104.267235 L116.404941,104.267235 L116.404941,109.903668 Z M121.006783,112.073541 L123.676141,118.668041 C123.981365,119.372369 123.583128,120.161578 122.817359,120.415317 C122.049783,120.668153 121.221704,120.329534 120.914674,119.625205 L118.061098,112.609011 L116.404941,112.609011 L116.404941,119.146623 C116.404941,119.90784 115.761983,120.499295 114.932098,120.499295 C114.134722,120.499295 113.459256,119.90784 113.459256,119.146623 L113.459256,102.914563 C113.459256,102.18134 114.134722,101.561892 114.932098,101.561892 L118.613753,101.561892 C121.469135,101.561892 123.767347,103.674877 123.767347,106.29534 L123.767347,107.873757 C123.767347,109.706817 122.662941,111.284332 121.006783,112.073541 L121.006783,112.073541 Z" id="Fill-17" fill="#163A60"></path>
        <path d="M129.133333,119.147075 L129.133333,102.801239 C129.133333,102.069821 129.810606,101.448567 130.606176,101.448567 C131.434255,101.448567 132.079018,102.069821 132.079018,102.801239 L132.079018,119.147075 C132.079018,119.908291 131.434255,120.499746 130.606176,120.499746 C129.810606,120.499746 129.133333,119.908291 129.133333,119.147075" id="Fill-19" fill="#163A60"></path>
        <path d="M136.738564,118.555078 L141.004479,110.692787 L137.046498,103.421951 C136.678061,102.744712 136.985995,101.928413 137.689455,101.589794 C138.426328,101.252078 139.316716,101.533809 139.684249,102.210145 L142.660637,107.676816 L145.635219,102.210145 C146.002752,101.533809 146.89314,101.252078 147.598407,101.589794 C148.336182,101.928413 148.641407,102.744712 148.273873,103.421951 L144.314988,110.692787 L148.579098,118.555078 C148.948437,119.202518 148.641407,120.020622 147.90634,120.359242 C147.20017,120.696958 146.310685,120.415227 145.942249,119.766884 L142.660637,113.707854 L139.377219,119.766884 C139.011492,120.415227 138.119298,120.696958 137.383328,120.359242 C136.678061,120.020622 136.371031,119.202518 136.738564,118.555078" id="Fill-21" fill="#163A60"></path>
        <path d="M67.4398382,9.35212612 C67.1400321,6.80390224 64.8002806,4.86067836 62.2392867,5.04127537 L37.8881715,6.73527537 C35.3289836,6.91316343 33.2285352,9.16069328 33.2285352,11.7269769 L33.2285352,35.981156 C33.2285352,38.5519545 35.2964745,40.2631112 37.8195412,39.789044 L44.3917958,38.5555664 C44.9119412,35.4176933 45.8149715,33.4085515 45.8149715,33.4085515 C50.1648685,22.4724993 61.4762261,18.8966784 68.4250442,17.7237007 L67.4398382,9.35212612 Z" id="Fill-62" fill="#8FD2E5"></path>
        <path d="M74.4968394,17.1662881 C76.0455364,17.0976612 83.6255727,17.0678627 88.2075485,22.6465045 C92.3488455,27.7023179 90.0361848,28.6811537 93.2446515,33.7739896 C93.7331909,34.5487507 94.6470576,35.2286985 95.7487545,35.8707209 L109.478427,35.8707209 C112.104439,35.8707209 114.065821,33.7261313 113.833742,31.1119896 L111.509342,4.76017612 C111.279973,2.1415194 108.941124,0.000541791045 106.310597,0.000541791045 L73.6660515,0.000541791045 C71.0382333,0.000541791045 69.1752818,2.1297806 69.537397,4.73489254 L71.2648939,17.3378552 C73.0619242,17.1500343 74.1744576,17.1500343 74.1744576,17.1500343 C74.1744576,17.1500343 74.2927545,17.1554522 74.4968394,17.1662881" id="Fill-64" fill="#163A60"></path>
        <path d="M118.7977,73.1603925 L117.101809,42.3984 C116.88147,39.6497134 114.453221,37.5746537 111.702591,37.7904672 L100.477924,38.2356388 C102.290306,39.1458478 103.828167,40.0994 104.239045,41.2588328 C104.629155,42.3478328 104.306773,43.3591761 103.773985,44.2802209 C103.115676,45.4125642 102.133179,46.3959149 101.733136,47.2131164 C101.642833,47.3991313 101.5733,47.5806313 101.557948,47.7458776 C101.393597,49.237609 104.68153,58.0633851 103.118385,61.1633328 C102.861021,61.6762284 102.41673,62.1629373 101.855045,62.6243627 C98.9698636,64.9748328 92.8211303,66.6318104 91.2742394,66.9758478 C91.0837,67.020094 90.8543303,67.1537358 90.5987727,67.3659373 C89.5503545,68.2219672 87.9826939,70.4153179 86.374397,73.4610866 C85.8587667,74.6584448 85.3964152,75.917206 85.0243667,77.126303 L114.193148,77.8875194 C116.946488,78.0329 119.018039,75.9081761 118.7977,73.1603925" id="Fill-66" fill="#ED742E"></path>
        <path d="M56.7806491,64.2037739 C54.4725036,62.7301022 52.5734309,61.1634231 50.9931279,59.5597216 C44.6683036,53.1069903 43.7029642,45.9300649 44.1273885,40.7270649 L36.6394612,42.3289604 C34.071243,42.8797813 31.9680855,45.4749604 31.9680855,48.106259 L31.9680855,70.9283037 C31.9680855,73.5559903 34.1136855,75.8017142 36.7415036,75.9209082 L55.8026673,76.3416993 C56.1927764,75.5172739 56.5675339,74.5519828 56.868243,73.3726843 C57.7486976,69.9720425 58.0611461,66.6418336 56.7806491,64.2037739" id="Fill-68" fill="#2DA6CD"></path>
    </g>
</svg>